<svg width="60" height="60" viewBox="0 0 60 60" fill="none" xmlns="http://www.w3.org/2000/svg">
<path d="M13.6528 2.03905C13.4653 2.12109 13.1489 2.33202 12.9731 2.5078C12.434 3.01171 12.3051 3.48046 12.3051 5.0039C12.3051 6.58593 12.4809 7.12499 13.1372 7.66405C13.4067 7.88671 13.4653 7.96874 13.3012 7.92187C12.0004 7.5703 10.1606 7.51171 8.90668 7.78124C6.2934 8.34374 4.26606 9.93749 3.1059 12.3633C2.27387 14.0976 2.05122 15.1641 2.06293 17.5195C2.06293 19.1133 2.12153 19.7578 2.32075 20.707C3.34028 25.4297 5.80121 28.6406 9.60981 30.1992C11.1684 30.8437 12.0356 30.9844 14.2153 30.9961H16.184L16.7582 31.7578C18.727 34.3711 21.9848 36.4453 25.2309 37.1602L25.8989 37.3008V37.8867C25.8989 38.2031 25.8168 39.0117 25.7114 39.6914C25.2192 43.0664 23.7895 45.8906 21.8325 47.3672C21.1762 47.8711 21.1762 47.8711 19.934 47.9414C18.4809 48.0234 17.7895 48.293 17.0629 49.1016C16.1489 50.1211 16.1137 50.2617 16.0786 54.1055L16.0434 57.5391L16.3364 57.832L16.6293 58.125H30.1176H43.6059L43.8989 57.832L44.1918 57.5391L44.1567 54.0469L44.1215 50.5664L43.8051 49.9687C43.4067 49.207 42.5043 48.3984 41.7661 48.1289C41.3911 48 40.852 47.9297 40.1958 47.9297H39.1997L38.3911 47.3086C36.1645 45.6328 34.7114 42.3633 34.395 38.3203L34.3129 37.3242L35.5668 37.0078C36.9614 36.6562 38.8247 35.8125 40.1137 34.957C41.1215 34.2891 42.8208 32.6836 43.559 31.6992L44.0864 30.9961L46.0903 30.9844C47.8833 30.9844 48.2348 30.9492 49.2543 30.668C54.0708 29.3789 57.2114 25.5234 58.0668 19.8633C58.6879 15.75 57.7504 12.2578 55.4301 9.94921C54.3872 8.91796 53.1567 8.23827 51.6333 7.85155C50.2622 7.49999 48.2231 7.53515 46.9458 7.93359C46.8051 7.96874 46.8989 7.83984 47.1684 7.60546C47.8247 7.01952 47.9301 6.66796 47.9301 4.98046C47.9301 3.24609 47.7661 2.77734 46.9692 2.26171L46.477 1.93359L30.2465 1.91015C16.9106 1.88671 13.9457 1.91015 13.6528 2.03905ZM44.7075 16.1719C44.7075 23.3672 44.684 24.293 44.5083 25.1484C43.395 30.2578 39.9497 33.9023 34.9458 35.2383C33.8911 35.5195 33.5864 35.5547 30.645 35.6016C27.1645 35.6484 26.1215 35.543 24.3872 34.9687C19.8637 33.4687 16.4536 29.4844 15.7153 24.8437C15.6332 24.375 15.5864 21.0469 15.5864 16.0781V8.08593L30.1528 8.10937L44.7075 8.14452V16.1719ZM13.0082 9.79687L13.6528 10.0195L13.6879 10.8633C13.7114 11.332 13.6997 11.7187 13.6645 11.7187C13.6293 11.7187 13.3364 11.6133 13.02 11.4844C12.0356 11.0976 11.0512 10.9805 10.02 11.1211C7.11372 11.5312 5.51997 13.7578 5.50825 17.4141C5.50825 21.6094 7.35981 25.2539 10.2192 26.6484C11.2856 27.1758 12.7036 27.5391 13.6762 27.5391H14.4262L14.6489 28.0781C15.1411 29.2031 15.1411 29.1797 14.145 29.1797C11.0395 29.1797 8.1684 27.8203 6.41059 25.5117C4.51215 23.0508 3.51606 19.0078 3.99653 15.7851C4.477 12.457 6.30512 10.3008 9.19965 9.62109C9.98481 9.43359 12.27 9.53905 13.0082 9.79687ZM51.9145 9.86718C54.645 10.875 56.1684 13.2656 56.3325 16.8164C56.5551 21.5625 54.5981 25.8398 51.3286 27.7852C50.3793 28.3477 48.9028 28.875 47.8129 29.0508C46.8989 29.2031 45.2348 29.2148 45.2348 29.0859C45.2348 29.0273 45.3637 28.6758 45.5161 28.2891L45.7973 27.5977L46.8403 27.5156C50.3208 27.2578 52.7817 25.2891 54.059 21.7148C55.02 19.0664 54.9731 15.457 53.9536 13.6055C52.9692 11.7891 50.8129 10.7812 48.6098 11.1328C48.1411 11.2031 47.5317 11.3672 47.2504 11.4844C46.9575 11.6133 46.7114 11.7187 46.6879 11.7187C46.6645 11.7187 46.6411 11.3203 46.6411 10.8398V9.97265L47.2622 9.79687C47.5903 9.70312 47.977 9.59765 48.1059 9.56249C48.2348 9.52734 48.9731 9.52734 49.7465 9.53905C50.8833 9.57421 51.3051 9.6328 51.9145 9.86718ZM12.3403 13.2422C12.6567 13.3594 13.0786 13.5937 13.3012 13.7578L13.6997 14.0625L13.7465 19.6055C13.77 22.6406 13.8286 25.2539 13.8754 25.3945C13.9692 25.6406 13.934 25.6641 13.5825 25.6641C13.0082 25.6641 11.7895 25.3477 11.2153 25.0664C8.83637 23.8594 7.38325 21 7.38325 17.5078C7.38325 14.8711 8.26215 13.3711 9.99653 13.0078C10.6411 12.8789 11.6372 12.9726 12.3403 13.2422ZM51.0942 13.3359C52.4887 14.0273 53.0512 15.7266 52.8286 18.5156C52.6059 21.4453 51.1879 23.9648 49.2426 24.9492C48.4106 25.3711 47.3793 25.6641 46.7231 25.6641C46.3481 25.6641 46.2895 25.6289 46.3364 25.4531C46.5356 24.832 46.6411 22.5234 46.6411 18.5039V13.9805L47.0864 13.6875C47.5317 13.3828 48.3637 13.0547 48.8676 12.9609C49.477 12.8555 50.4614 13.0195 51.0942 13.3359ZM32.5551 38.9414C32.895 42.3164 34.0082 45.3281 35.6489 47.2617C35.9067 47.5781 36.0942 47.8477 36.0708 47.8828C36.0356 47.9062 33.3403 47.918 30.0707 47.9062L24.1293 47.8711L24.7856 47.0508C26.3911 45.0352 27.5043 41.8477 27.727 38.6367L27.809 37.5H30.1059H32.4145L32.5551 38.9414ZM26.0278 52.3711C26.4497 52.793 26.4614 53.2266 26.0747 53.6133C25.8051 53.8828 25.7114 53.9062 24.5512 53.9062C23.3911 53.9062 23.2973 53.8828 23.0278 53.6133C22.6879 53.2852 22.6528 52.8984 22.9223 52.5234C23.1918 52.125 23.4848 52.043 24.645 52.043C25.6411 52.0312 25.6997 52.043 26.0278 52.3711ZM36.9965 52.4297C37.3364 52.8398 37.3012 53.3672 36.9028 53.6953C36.6801 53.8828 36.2934 53.9062 32.7426 53.9062C28.9809 53.9062 28.8168 53.8945 28.5942 53.6719C28.184 53.2617 28.3364 52.3594 28.8637 52.1484C29.0043 52.0898 30.8325 52.0547 32.9067 52.0664L36.7036 52.0898L36.9965 52.4297Z" fill="#D4AF37"/>
<circle cx="30.5" cy="21.5" r="10.5" fill="#D4AF37"/>
<path d="M33.6035 22.666V24.1895H27.4629L27.3457 22.9824L30.7734 17.4688H32.332L30.6387 20.2402L29.2324 22.666H33.6035ZM32.7422 17.4688V26H30.7676V17.4688H32.7422Z" fill="black"/>
</svg>
