<svg width="40" height="40" viewBox="0 0 40 40" fill="none" xmlns="http://www.w3.org/2000/svg">
<g clip-path="url(#clip0_138_366)">
<path d="M3.71163 3.97656C3.31319 4.15625 2.92256 4.59375 2.821 4.97656C2.77413 5.14843 2.73506 6.08593 2.73506 7.16406V9.0625H2.05538C1.25069 9.0625 0.867877 9.20312 0.500689 9.625C-0.0383731 10.2422 -0.00712313 9.4375 0.0163144 21.2109L0.0397519 31.8359L0.211627 32.2031C0.446002 32.7187 0.961627 33.2422 1.47725 33.4922L1.91475 33.7109L14.1726 33.75L26.4304 33.7891L26.5241 34.1797C26.571 34.3906 26.6726 34.6875 26.7507 34.8359C26.9538 35.2187 27.4929 35.7266 27.9304 35.9453L28.321 36.1328L33.0944 36.1562C37.7741 36.1797 37.8835 36.1719 38.3054 36.0156C38.8835 35.7969 39.4694 35.2656 39.7429 34.7031L39.9616 34.2578L39.9851 32.0312C40.0085 29.8594 40.0085 29.7969 39.8444 29.6328C39.6257 29.3906 39.2038 29.3906 38.9851 29.625C38.8366 29.7891 38.8288 29.8906 38.8288 31.8125C38.8288 34.2578 38.7741 34.4766 38.0319 34.8516C37.7585 34.9922 37.5007 35 33.196 35H28.6569L28.3444 34.8281C28.1569 34.7187 27.946 34.5078 27.8288 34.2969L27.6179 33.9453L27.5944 29.8594L27.571 25.7812H33.2038H38.8288V26.5937C38.8288 27.0391 38.8523 27.4687 38.8757 27.5391C39.0085 27.8828 39.6491 27.9141 39.8913 27.5937C40.0398 27.4062 40.0398 25.7031 39.8913 25.3672C39.7663 25.0703 39.4929 24.8047 39.2038 24.6953L38.9851 24.6094V23.3828C38.9851 21.8984 38.8679 21.2891 38.4382 20.4062C37.8444 19.2031 36.5866 18.2187 35.3054 17.9531L34.8444 17.8594V15.8437C34.8444 13.6016 34.7898 13.1953 34.4304 12.7187C34.0319 12.2031 33.6257 12.0312 32.8054 12.0312H32.1179L32.0944 8.53125L32.071 5.03906L31.8523 4.66406C31.7351 4.46093 31.4851 4.19531 31.3132 4.07812L30.9851 3.86718L19.7273 3.84375C9.06319 3.82812 8.45381 3.83593 8.33663 3.96093C8.11006 4.21875 8.09444 4.49218 8.30538 4.73437L8.50069 4.96093L19.6257 5C25.7351 5.02343 30.7507 5.04687 30.7507 5.0625C30.9226 5.36718 30.9382 5.76562 30.9226 8.75L30.8991 11.9922L20.5241 12.0156C13.8288 12.0234 10.0944 12.0078 10.0007 11.9531C9.86006 11.875 9.18038 10.9766 9.09444 10.75C9.04756 10.6406 9.99288 10.625 18.7273 10.625C29.5476 10.625 28.7507 10.6719 28.7507 10.0781C28.7507 9.84375 28.7038 9.74218 28.5476 9.61718C28.3366 9.45312 28.3366 9.45312 18.2351 9.45312H8.1335L7.76631 9.25781C7.40694 9.0625 7.36788 9.0625 5.65694 9.0625H3.90694V7.20312C3.90694 5.67968 3.93038 5.32031 4.02413 5.17968C4.1335 5.02343 4.21944 5.00781 5.20381 4.98437C6.21163 4.96093 6.27413 4.95312 6.41475 4.77343C6.61006 4.53906 6.60225 4.17968 6.40694 3.98437C6.26631 3.84375 6.14913 3.82812 5.14131 3.82812C4.22725 3.82812 3.96944 3.85937 3.71163 3.97656ZM7.28194 10.3281C7.35225 10.3828 7.79756 10.9766 8.26631 11.6484C8.93819 12.5937 9.196 12.8984 9.43038 13.0156C9.71944 13.1562 10.1413 13.1641 21.5632 13.2031C28.071 13.2266 33.4069 13.25 33.4226 13.2656C33.4382 13.2734 33.5007 13.4062 33.5632 13.5547C33.6491 13.7656 33.6726 14.25 33.6726 15.8203V17.8125H32.7194C32.1804 17.8125 31.5163 17.8672 31.2116 17.9297C29.6023 18.2656 28.2038 19.5391 27.6882 21.1328C27.5085 21.6875 27.4773 21.9297 27.4382 23.1875L27.3991 24.6094L27.1491 24.7344C27.0085 24.7969 26.8288 24.9219 26.7585 25C26.4304 25.3594 26.4148 25.5937 26.4069 29.1641V32.5781L14.2351 32.5625L2.05538 32.5391L1.76631 32.3125C1.60225 32.1875 1.39913 31.9453 1.321 31.7656C1.18038 31.4609 1.17256 31.0312 1.17256 21.0312V10.6172L1.36788 10.4297L1.55538 10.2344H4.36006C6.47725 10.2344 7.18819 10.2578 7.28194 10.3281ZM35.071 19.1016C35.3444 19.1719 35.7507 19.3203 35.9616 19.4297C36.8132 19.8984 37.5554 20.9141 37.7351 21.8672C37.7741 22.0937 37.8132 22.8125 37.8132 23.4453V24.6094H37.3132H36.8132L36.7819 23.2578C36.7585 21.9766 36.7507 21.8984 36.5398 21.4766C36.2898 20.9609 35.7663 20.4453 35.2507 20.2109C34.9148 20.0547 34.7585 20.0391 33.2429 20.0391H31.6023L31.0788 20.2969C30.4851 20.5859 30.1413 20.9453 29.8523 21.5625C29.6726 21.9609 29.6491 22.1016 29.6257 23.2969L29.5944 24.6094H29.0944H28.5944V23.5703C28.5944 22.2891 28.696 21.6641 28.9851 21.0312C29.4069 20.125 30.3757 19.3359 31.3679 19.0937C31.9538 18.9531 34.446 18.9609 35.071 19.1016ZM33.6726 22.8906V24.6094H32.2273H30.7819V23.5703C30.7819 22.0859 30.9382 21.6562 31.5788 21.3359C31.8601 21.1953 32.0554 21.1719 32.7976 21.1719H33.6726V22.8906ZM35.2507 21.6172C35.5554 21.9531 35.6257 22.3047 35.6257 23.4766V24.6094H35.2351H34.8444V22.9687C34.8444 21.4219 34.8523 21.3281 34.9851 21.3984C35.0554 21.4375 35.1804 21.5391 35.2507 21.6172Z" fill="url(#paint0_linear_138_366)"/>
<path d="M3.82838 26.1094C3.19557 26.4375 3.16432 26.5234 3.14088 28.2031C3.11744 29.5547 3.12526 29.7031 3.27369 29.9844C3.35963 30.1562 3.55494 30.3672 3.69557 30.4609C3.96119 30.625 4.02369 30.625 8.64088 30.625C13.1721 30.625 13.3284 30.6172 13.5784 30.4688C13.719 30.3828 13.8987 30.2031 13.9846 30.0625C14.1331 29.8203 14.1409 29.6953 14.1253 28.2266L14.1018 26.6484L13.8284 26.3672C13.6799 26.2188 13.4378 26.0547 13.2815 26.0156C13.1174 25.9688 11.2503 25.9375 8.59401 25.9375H4.17213L3.82838 26.1094ZM12.969 28.2812V29.4531H8.63307H4.29713V28.2812V27.1094H8.63307H12.969V28.2812Z" fill="url(#paint1_linear_138_366)"/>
<path d="M6.21094 6.91406C6.10156 7.01562 6.01562 7.19531 6.01562 7.30469C6.01562 7.41406 6.10156 7.59375 6.21094 7.69531L6.39844 7.89062H17.4219C28.3359 7.89062 28.4375 7.89062 28.5938 7.73438C28.8047 7.52344 28.8047 7.08594 28.5781 6.875C28.4063 6.71875 28.3672 6.71875 17.4063 6.71875H6.39844L6.21094 6.91406Z" fill="url(#paint2_linear_138_366)"/>
<path d="M32.7744 27.0234C32.0322 27.2187 31.5088 27.7266 31.2901 28.4609C31.1416 28.9609 31.1416 29.0937 31.2979 29.6016C31.4385 30.0937 31.9072 30.6406 32.3526 30.8359L32.6572 30.9687V32.2344V33.5078L32.8604 33.6641C33.1182 33.8672 33.3682 33.875 33.6026 33.6797C33.7822 33.5312 33.7901 33.4844 33.8135 32.25L33.8369 30.9766L34.2197 30.7656C35.1026 30.2734 35.4541 29.25 35.0791 28.25C34.8994 27.7891 34.4619 27.3281 34.0322 27.1484C33.6963 27.0078 33.0713 26.9453 32.7744 27.0234ZM33.5557 28.2344C33.7041 28.2969 33.876 28.4531 33.9385 28.5859C34.2666 29.2109 33.8916 29.8437 33.1885 29.8437C32.4541 29.8437 32.0947 28.9297 32.6416 28.4219C32.9776 28.1016 33.1494 28.0703 33.5557 28.2344Z" fill="url(#paint3_linear_138_366)"/>
</g>
<defs>
<linearGradient id="paint0_linear_138_366" x1="-0.999999" y1="3" x2="59.3217" y2="32.6303" gradientUnits="userSpaceOnUse">
<stop stop-color="#FF0000"/>
<stop offset="1" stop-color="#8F8E8E"/>
</linearGradient>
<linearGradient id="paint1_linear_138_366" x1="2.85422" y1="25.8175" x2="13.8748" y2="36.0883" gradientUnits="userSpaceOnUse">
<stop stop-color="#FF0000"/>
<stop offset="1" stop-color="#8F8E8E"/>
</linearGradient>
<linearGradient id="paint2_linear_138_366" x1="5.44389" y1="6.68874" x2="6.14897" y2="12.1212" gradientUnits="userSpaceOnUse">
<stop stop-color="#FF0000"/>
<stop offset="1" stop-color="#8F8E8E"/>
</linearGradient>
<linearGradient id="paint3_linear_138_366" x1="31.0779" y1="26.8144" x2="38.2586" y2="28.5042" gradientUnits="userSpaceOnUse">
<stop stop-color="#FF0000"/>
<stop offset="1" stop-color="#8F8E8E"/>
</linearGradient>
<clipPath id="clip0_138_366">
<rect width="40" height="40" fill="white"/>
</clipPath>
</defs>
</svg>
