<svg width="40" height="40" viewBox="0 0 40 40" fill="none" xmlns="http://www.w3.org/2000/svg">
<path d="M24.2342 2.22654C25.3436 2.35935 25.8592 2.47654 26.0311 2.63279C26.2264 2.80466 26.2186 3.29685 26.0154 3.47654C25.8436 3.62497 25.8201 3.62497 24.0232 3.39841C23.2576 3.29685 22.6639 3.27341 21.6014 3.31247C18.9842 3.3906 17.0311 3.86716 14.7264 4.99997C11.367 6.65622 8.77325 9.23435 7.10918 12.5937C5.12481 16.5937 4.83575 21.2578 6.3045 25.4922C9.04668 33.4297 17.3045 38.0859 25.5623 36.3593C30.0232 35.4297 34.0232 32.5859 36.4061 28.6718C38.6873 24.9218 39.3982 20.1953 38.3279 15.9531C37.0467 10.9062 33.5232 6.73435 28.8279 4.68747C27.8279 4.25779 27.6561 4.12497 27.6561 3.81247C27.6561 3.55466 27.9607 3.2031 28.1873 3.2031C28.5936 3.2031 30.7654 4.27341 31.9607 5.07029C33.117 5.83591 33.8904 6.48435 34.9295 7.54685C37.6326 10.3203 39.2889 13.7343 39.8592 17.6953C40.0076 18.7578 39.9842 21.4765 39.8201 22.5781C39.3123 25.8125 37.992 28.8125 35.992 31.289C35.2732 32.1797 33.7654 33.625 32.8436 34.3125C30.1873 36.2812 27.0779 37.4922 23.8357 37.8125C22.7732 37.914 17.2107 37.914 16.1248 37.8047C12.6873 37.4765 9.117 35.9843 6.49981 33.8047C5.62481 33.0703 4.27325 31.6484 3.57793 30.7265C1.81231 28.375 0.648247 25.5937 0.187309 22.5781C-0.00800323 21.3281 -0.00800323 18.6718 0.187309 17.4218C0.656059 14.3984 1.78106 11.6797 3.57793 9.2656C4.26543 8.34372 5.71075 6.83591 6.60137 6.11716C9.25762 3.97654 12.4686 2.61716 15.8357 2.22654C17.1326 2.0781 22.9764 2.0781 24.2342 2.22654ZM13.4607 3.87497C12.5154 4.13279 11.1326 4.65622 10.4139 5.03122L10.0389 5.22654L10.992 5.23435H11.9451L12.5154 4.86716C12.8279 4.66404 13.5232 4.27341 14.0545 4.00779C15.1482 3.46091 15.0623 3.43747 13.4607 3.87497ZM7.64825 6.78904C7.367 6.99997 6.85918 7.43747 6.52325 7.75779L5.89825 8.35154L7.16387 8.35935H8.43731L9.41387 7.38279L10.3904 6.40622H9.26543H8.14825L7.64825 6.78904ZM4.50762 9.97654C4.10137 10.5156 3.51543 11.4062 3.51543 11.5C3.51543 11.5312 4.14043 11.5625 4.90606 11.5625H6.29668L6.48418 11.2265C6.58575 11.0468 6.85137 10.6093 7.08575 10.25C7.31231 9.89841 7.49981 9.58591 7.49981 9.57029C7.49981 9.54685 6.90606 9.53122 6.1795 9.53122H4.85137L4.50762 9.97654ZM2.40606 13.6718C2.20293 14.164 2.03887 14.5937 2.03887 14.625C2.03106 14.664 2.69512 14.6875 3.49981 14.6875H4.97637L5.28887 13.8437C5.46075 13.3828 5.62481 12.9453 5.66387 12.8672C5.71856 12.7422 5.63262 12.7343 4.24981 12.75L2.78106 12.7734L2.40606 13.6718ZM1.49981 16.7343C1.40606 17.2187 1.32793 17.664 1.32793 17.7109C1.32793 17.789 1.6795 17.8125 2.81231 17.8125C3.93731 17.8125 4.3045 17.789 4.32793 17.7109C4.34356 17.664 4.42168 17.2187 4.50762 16.7343L4.65606 15.8593H3.16387H1.66387L1.49981 16.7343ZM1.21075 20V20.9765L2.71075 21L4.21856 21.0156V20V18.9843L2.71075 19L1.21075 19.0234V20ZM1.32793 22.2812C1.32793 22.3359 1.40606 22.7812 1.49981 23.2578L1.66387 24.1406H3.16387H4.65606L4.50762 23.2578C4.42168 22.7812 4.34356 22.3359 4.32793 22.2812C4.3045 22.2109 3.93731 22.1875 2.81231 22.1875C1.6795 22.1875 1.32793 22.2109 1.32793 22.2812ZM2.25762 25.914C2.38262 26.25 2.56231 26.6875 2.64825 26.8906L2.82012 27.2656H4.27325C5.62481 27.2656 5.71856 27.2578 5.66387 27.125C5.62481 27.0547 5.46075 26.6172 5.28887 26.1484L4.97637 25.3125H3.49981H2.03106L2.25762 25.914ZM3.51543 28.5C3.51543 28.5937 4.10137 29.4843 4.50762 30.0156L4.85137 30.4687H6.1795C6.90606 30.4687 7.49981 30.4531 7.49981 30.4297C7.49981 30.414 7.31231 30.1015 7.08575 29.75C6.85137 29.3906 6.58575 28.9531 6.48418 28.7656L6.29668 28.4375H4.90606C4.14043 28.4375 3.51543 28.4687 3.51543 28.5ZM6.52325 32.2422C6.85918 32.5625 7.367 33 7.64825 33.2109L8.14825 33.5937H9.26543H10.3826L9.4295 32.625L8.47637 31.6484H7.18731H5.89825L6.52325 32.2422ZM10.4139 34.9687C11.1326 35.3437 12.5154 35.8672 13.4607 36.125C15.0389 36.5547 15.1326 36.539 14.0857 36.0156C13.5779 35.7578 12.8982 35.375 12.5779 35.164L11.992 34.7812L11.0154 34.7734H10.0389L10.4139 34.9687Z" fill="url(#paint0_linear_147_499)"/>
<path d="M24.2344 5.5078C27.5391 6.04686 30.3438 7.49999 32.625 9.85936C34.6641 11.9687 35.9766 14.5312 36.5391 17.5312C36.7344 18.5391 36.7344 21.4609 36.5391 22.4687C35.3906 28.5234 31 33.0547 25.0156 34.3437C23.8906 34.5937 21.5625 34.6875 20.3359 34.5391C18.7266 34.3437 17.0156 33.8203 15.5 33.0625C14.7188 32.6719 13.3438 31.8047 13.25 31.6484C13.2188 31.6016 13.1875 31.4531 13.1875 31.3125C13.1797 31.0469 13.4922 30.7031 13.7344 30.7031C13.8047 30.7031 14.2188 30.9375 14.6484 31.2187C16.0859 32.1641 17.7031 32.8359 19.4531 33.2187C20.1719 33.3672 20.5 33.3906 22.0703 33.3984C23.6719 33.3984 23.9609 33.375 24.7266 33.2109C25.9922 32.9453 26.8594 32.6328 28.0859 32.0312C29.5078 31.3203 30.4453 30.6484 31.6016 29.4922C33.5234 27.5703 34.7344 25.3281 35.3203 22.5781C35.4766 21.8594 35.5 21.5312 35.5 20C35.5 18.4687 35.4766 18.1406 35.3203 17.4219C34.9062 15.5078 34.1172 13.6719 33.0625 12.1875C32.3984 11.2422 30.875 9.72655 29.9219 9.03905C29.0469 8.42186 27.2891 7.53124 26.2891 7.20311C24.7656 6.70311 24.0469 6.60155 22.0703 6.60155C20.5078 6.60936 20.1719 6.6328 19.4688 6.78124C16.6172 7.40624 14.3516 8.66405 12.3828 10.7109C10.1719 13.0234 8.92188 15.8359 8.67188 19.0547C8.41406 22.4844 9.55469 26 11.7812 28.6641C12.3438 29.3359 12.4141 29.6406 12.0625 29.9141C11.7266 30.1797 11.5703 30.125 11.0391 29.5703C9.75781 28.2266 8.47656 25.7812 7.89844 23.5703C7.47656 21.9609 7.35938 19.5625 7.60938 17.9141C8.22656 13.8516 10.3281 10.4531 13.7344 7.98436C14.5469 7.40624 16.4688 6.43749 17.4922 6.10155C19 5.60155 19.9375 5.45311 21.8359 5.42186C23.0625 5.40624 23.75 5.42968 24.2344 5.5078Z" fill="url(#paint1_linear_147_499)"/>
<path d="M25.4795 22.5234V24H20.4756V22.5234H25.4795ZM21.043 14.0469V24H19.1631V14.0469H21.043Z" fill="url(#paint2_linear_147_499)"/>
<path opacity="0.6" d="M24.4795 23.5234V25H19.4756V23.5234H24.4795ZM20.043 15.0469V25H18.1631V15.0469H20.043Z" fill="url(#paint3_linear_147_499)"/>
<defs>
<linearGradient id="paint0_linear_147_499" x1="8" y1="4" x2="39.3566" y2="46.4314" gradientUnits="userSpaceOnUse">
<stop stop-color="#FF0000"/>
<stop offset="1" stop-color="#8F8E8E"/>
</linearGradient>
<linearGradient id="paint1_linear_147_499" x1="13.3027" y1="6.95541" x2="39.5787" y2="38.8349" gradientUnits="userSpaceOnUse">
<stop stop-color="#FF0000"/>
<stop offset="1" stop-color="#8F8E8E"/>
</linearGradient>
<linearGradient id="paint2_linear_147_499" x1="18.3" y1="9" x2="33.873" y2="14.7101" gradientUnits="userSpaceOnUse">
<stop stop-color="#FF0000"/>
<stop offset="1" stop-color="#8F8E8E"/>
</linearGradient>
<linearGradient id="paint3_linear_147_499" x1="17.3" y1="10" x2="32.873" y2="15.7101" gradientUnits="userSpaceOnUse">
<stop stop-color="#FF0000"/>
<stop offset="1" stop-color="#8F8E8E"/>
</linearGradient>
</defs>
</svg>
