<svg width="40" height="40" viewBox="0 0 40 40" fill="none" xmlns="http://www.w3.org/2000/svg">
<path d="M19.0859 1.28123C17.2969 1.71873 16.0156 3.33592 16.0156 5.15623C16.0156 6.3203 16.375 7.17186 17.2188 8.01561L17.7734 8.5703L17.2656 8.70311C16.5859 8.87498 15.4609 9.43748 14.9062 9.8828C14.3359 10.3281 13.8203 10.9844 13.4766 11.6797C13.0312 12.5859 12.9609 12.9765 12.9141 14.9297L12.8672 16.6953L12.4688 16.7969C12 16.9062 10.5625 16.9922 10.2812 16.9219C10.1016 16.875 10.0938 16.8515 10.1562 16.6719C10.2734 16.3672 10.25 16.0547 10.1016 15.914C10.0234 15.8515 8.85938 15.4922 7.50781 15.125C4.96875 14.4375 4.875 14.4219 4.69531 14.75C4.60156 14.9219 1.17188 27.5 1.17188 27.664C1.17188 27.7344 1.23438 27.8437 1.32031 27.9219C1.39844 27.9922 2.5625 28.3515 3.90625 28.7187C5.875 29.2578 6.39062 29.375 6.53125 29.3047C6.66406 29.25 6.75 29.0859 6.85938 28.7344L7.00781 28.2422L7.42969 28.2578C8.09375 28.289 8.70312 28.6328 9.40625 29.3828C9.73438 29.7265 10 30.039 10 30.0703C10 30.1094 9.89062 30.2734 9.75781 30.4375C9.17188 31.1719 9.03906 31.875 9.35156 32.5781C9.53906 33.0078 10.0469 33.4765 10.4531 33.5937L10.7578 33.6875L10.6484 34.0937C10.4297 34.9297 10.8281 35.7812 11.6406 36.1953C12.0078 36.3828 12.1328 36.414 12.5391 36.3828C12.7969 36.3594 13.0781 36.3203 13.1641 36.289C13.2969 36.25 13.3438 36.289 13.4219 36.5156C13.5469 36.8594 14.1172 37.3672 14.5156 37.4844C14.9609 37.6172 15.4609 37.5937 15.8438 37.4219L16.1797 37.2734L16.25 37.4531C16.3672 37.7578 16.8125 38.2187 17.1484 38.3672C17.5625 38.5625 18.2969 38.5547 18.7188 38.3672C18.8906 38.289 19.1641 38.0937 19.3203 37.9375L19.5938 37.6484L20.1562 38.1172C20.9844 38.8125 21.6406 38.9765 22.4609 38.6953C23.1562 38.4609 23.8281 37.5859 23.8281 36.9219C23.8281 36.7734 23.8672 36.7578 24.2969 36.7812C25.0938 36.8281 25.8828 36.3515 26.25 35.5859C26.3359 35.4062 26.4062 35.1562 26.4062 35.0234V34.7812L27.0156 34.7578C27.5312 34.7344 27.6875 34.6875 28.0078 34.4922C28.5156 34.1797 28.875 33.7031 28.9922 33.164L29.0859 32.7344H29.6016C30.2109 32.7344 30.6328 32.5625 31.0312 32.1719C31.6094 31.5859 31.7891 30.7109 31.4922 29.9219L31.3281 29.4922L31.5781 29.2812C31.9531 28.9687 32.9609 28.4765 33.0391 28.5625C33.0781 28.6015 33.1484 28.7656 33.2031 28.9297C33.3672 29.4609 33.3828 29.4609 36.0938 28.7187C37.4375 28.3515 38.6016 27.9922 38.6797 27.9219C38.7656 27.8437 38.8281 27.7265 38.8281 27.6562C38.8281 27.5547 35.9375 16.8828 35.4219 15.1015C35.2188 14.3594 35.3125 14.3594 32.5 15.125C31.1484 15.4922 29.9766 15.8515 29.9062 15.914C29.75 16.0547 29.7266 16.3672 29.8438 16.6875L29.9297 16.8984L29.2031 16.8437C28.8047 16.8203 28.1797 16.7578 27.8047 16.7109L27.1328 16.625L27.0859 14.8906C27.0391 12.9765 26.9688 12.5781 26.5234 11.6797C26.1797 10.9844 25.6641 10.3281 25.0938 9.8828C24.5391 9.43748 23.4141 8.87498 22.7344 8.70311L22.2266 8.5703L22.7734 8.01561C23.6406 7.14061 23.9844 6.3203 23.9844 5.15623C23.9844 2.60936 21.5469 0.687485 19.0859 1.28123ZM21.2031 2.36717C22.0625 2.7578 22.5703 3.3203 22.8906 4.1953C23.1328 4.85936 23.0938 5.77342 22.7969 6.42186C22.375 7.33592 21.4922 8.01561 20.4844 8.20311C19.1875 8.43748 17.7891 7.67967 17.2031 6.42186C17.0156 6.02342 16.9922 5.8828 16.9922 5.15623C16.9922 4.40623 17.0156 4.29686 17.2188 3.87498C17.625 3.06248 18.4297 2.40623 19.2734 2.18748C19.7891 2.06248 20.7188 2.14842 21.2031 2.36717ZM21.4844 9.41405C22.4609 9.56248 22.9531 9.71092 23.7109 10.1015C24.8516 10.6875 25.7344 11.7578 26.0156 12.8906C26.0625 13.0859 26.125 13.9531 26.1484 14.8203C26.1875 16.1484 26.1797 16.4062 26.0859 16.4062C26.0234 16.4062 25.5156 16.3125 24.9453 16.2031L23.9219 15.9922L23.8906 15.1406C23.8672 14.3984 23.8438 14.2656 23.7188 14.1719C23.5156 14.0312 23.2422 14.0312 23.0938 14.1875C23 14.2812 22.9688 14.4765 22.9688 15.0547C22.9688 15.789 22.9688 15.7969 22.7969 15.7578C22.3516 15.6484 20.1172 15.3047 19.3828 15.2344C18.9375 15.1953 18.2266 15.1562 17.8047 15.1562H17.0312V14.7344C17.0312 14.2656 16.9062 14.0625 16.6094 14.0625C16.2344 14.0625 16.1328 14.2344 16.1094 14.9531C16.0859 15.4687 16.0469 15.6406 15.9375 15.7422C15.8359 15.8359 14.0469 16.3984 13.8359 16.4062C13.8203 16.4062 13.8281 15.6953 13.8516 14.8203C13.9141 12.5625 14.1016 11.9922 15.1172 10.9765C16.2109 9.86717 17.7812 9.3203 19.9219 9.30467C20.375 9.30467 21.0781 9.35155 21.4844 9.41405ZM7.32812 16.0469C8.33594 16.3281 9.16406 16.5625 9.17969 16.5781C9.21094 16.6094 6.05469 28.1953 5.99219 28.25C5.90625 28.3437 2.26562 27.3125 2.26562 27.2031C2.26562 27.0234 5.41406 15.5469 5.46094 15.5469C5.48438 15.5469 6.32812 15.7734 7.32812 16.0469ZM36.1562 21.3203C37.0234 24.5 37.7344 27.1406 37.7344 27.2031C37.7344 27.3125 34.0938 28.3437 34.0078 28.25C33.9453 28.1953 30.7891 16.6094 30.8203 16.5781C30.8516 16.5469 34.3828 15.5625 34.5 15.5547C34.5469 15.5469 35.2734 18.0703 36.1562 21.3203ZM20.5703 16.3281C21.1641 16.414 22.7734 16.7187 24.1406 16.9922C26.9219 17.5547 27.9453 17.7109 29.2578 17.7812C29.9844 17.8281 30.1641 17.8594 30.1875 17.9609C30.2109 18.0312 30.7969 20.1562 31.4844 22.6953C32.1719 25.2265 32.7578 27.3672 32.7812 27.4453C32.8047 27.5312 32.7734 27.5937 32.6797 27.625C32.2812 27.7656 31.3984 28.2422 31.0312 28.5234L30.6094 28.8359L29.8984 28.2265C22.4922 21.9297 20.7109 20.4375 20.4453 20.3047C20.2344 20.1953 19.9844 20.1406 19.6641 20.1406C19.2656 20.1406 19.0938 20.1953 18.4844 20.4922C18.0938 20.6875 17.2812 21.1719 16.6797 21.5703C14.8281 22.7812 13.8125 23.1719 13.0547 22.9687C12.5703 22.8437 12.3984 22.5312 12.4531 21.875C12.5547 20.4453 13.5469 19.0156 15.7422 17.125C17.0469 16 16.8594 16.0703 18.2812 16.125C18.9453 16.1484 19.9766 16.2422 20.5703 16.3281ZM13.4688 17.9844C12.4375 19.0859 11.8438 20.1015 11.6016 21.2187C11.1875 23.0703 12.1641 24.1875 13.9375 23.9062C14.8516 23.7656 15.5312 23.4297 17.2891 22.289C19.0234 21.164 19.75 20.875 20.1328 21.1797C21.3203 22.1094 30.5469 30.0469 30.6094 30.1953C30.8359 30.6875 30.6406 31.3672 30.1953 31.6406C29.9297 31.8047 29.3125 31.8515 29.0703 31.7265C29 31.6875 27.9062 30.7734 26.6406 29.6953C25.0938 28.3828 24.2812 27.7344 24.1641 27.7344C23.8281 27.7344 23.5625 28.1484 23.7344 28.4062C23.7656 28.4609 24.7031 29.2734 25.8203 30.2265C27.9844 32.0703 28.1562 32.2734 28.0938 32.8359C28.0547 33.2031 27.875 33.4765 27.5547 33.6719C27.2812 33.8437 26.7266 33.875 26.4766 33.75C26.3984 33.7031 25.4609 32.9297 24.3984 32.0312C23.3438 31.125 22.4219 30.3906 22.3516 30.3906C22.0859 30.3906 21.8672 30.625 21.8906 30.8828C21.9141 31.1015 22.1172 31.3047 23.3984 32.3984C25.3984 34.1094 25.4688 34.1875 25.4688 34.6953C25.4688 35.1328 25.3359 35.4219 25.0234 35.6562C24.8047 35.8203 24.3203 35.9062 24.0312 35.8281C23.9219 35.8047 23.1328 35.1875 22.2812 34.4609C21.4297 33.7344 20.6641 33.125 20.5703 33.0937C20.4531 33.0547 20.3438 33.1015 20.1875 33.2265C19.8281 33.539 19.9453 33.7031 21.3359 34.8906C22.0312 35.4765 22.6641 36.0703 22.7422 36.2031C23.1172 36.8125 22.7266 37.6953 22.0234 37.8515C21.5938 37.9453 21.2656 37.8203 20.7188 37.3672C20.4297 37.125 20.1875 36.9219 20.1797 36.914C20.1719 36.914 20.2188 36.75 20.2812 36.5625C20.6172 35.6094 19.9531 34.3515 19.0234 34.1719L18.7734 34.125L18.8125 33.6015C18.8594 32.9453 18.7422 32.5781 18.3672 32.164C18.0781 31.8437 17.5859 31.5703 17.3047 31.5625C17.1641 31.5625 17.1484 31.5078 17.1484 31.0703C17.1484 30.1406 16.5547 29.4062 15.6562 29.2187C15.2188 29.125 14.9688 29.1719 14.2188 29.4765C14.1406 29.5078 14.0312 29.4062 13.8672 29.1562C13.5469 28.664 12.9688 28.3594 12.3516 28.3594C11.8047 28.3594 11.3828 28.5469 10.9688 28.9765L10.6562 29.3047L9.95312 28.6094C9.17969 27.8359 8.60938 27.5078 7.75 27.3437C7.35938 27.2656 7.27344 27.2187 7.30469 27.1172C7.32031 27.0469 7.89062 24.9922 8.55469 22.539C9.22656 20.0859 9.78906 18.0312 9.80469 17.9687C9.83594 17.875 10.0469 17.8515 11.0312 17.8437C12.1172 17.8437 12.3047 17.8203 13.0859 17.6015C13.5625 17.4687 13.9766 17.3594 14.0156 17.3515C14.0469 17.3515 13.8047 17.6328 13.4688 17.9844ZM12.8125 29.414C13.125 29.5781 13.3125 29.9453 13.2578 30.3281C13.2266 30.5625 13.0469 30.8359 12.4531 31.5703C12.0391 32.0859 11.6172 32.5625 11.5312 32.625C11.4453 32.6875 11.2266 32.7344 11.0469 32.7344C10.4766 32.7344 10.0234 32.1797 10.1328 31.6172C10.1719 31.3984 11.4922 29.7344 11.8359 29.4609C12.0938 29.2656 12.4922 29.25 12.8125 29.414ZM15.8438 30.2812C16.0859 30.4453 16.2734 30.8984 16.2188 31.2031C16.1641 31.4844 13.3516 35.0078 12.9609 35.289C12.6562 35.5078 12.3047 35.5156 11.9766 35.3125C11.4766 35.0156 11.3906 34.4219 11.7656 33.9297C12.7422 32.625 14.7422 30.2812 14.9531 30.1875C15.2266 30.0625 15.5625 30.1015 15.8438 30.2812ZM17.625 32.7656C17.8438 32.9844 17.8906 33.0859 17.8906 33.375C17.8906 33.7812 17.8984 33.7656 16.6719 35.2812C15.6484 36.539 15.4453 36.6953 14.9375 36.6172C14.5 36.5469 14.2188 36.1953 14.2188 35.7187C14.2188 35.3515 14.25 35.3047 15.2734 34.0469C15.8516 33.3281 16.3984 32.6953 16.5 32.625C16.5938 32.5547 16.8281 32.5 17.0156 32.5C17.3047 32.5 17.4062 32.5469 17.625 32.7656ZM19.0469 35.2031C19.4062 35.4531 19.5547 35.9922 19.3594 36.3515C19.2109 36.6406 18.5859 37.375 18.4062 37.4765C18.3203 37.5312 18.0859 37.5703 17.9062 37.5781C17.6172 37.5781 17.5156 37.5312 17.2969 37.3125C17.0703 37.0859 17.0312 36.9922 17.0312 36.6953C17.0312 36.3984 17.0859 36.2734 17.3516 35.9219C17.875 35.2422 18.1016 35.0781 18.5156 35.0781C18.7109 35.0781 18.9531 35.1328 19.0469 35.2031Z" fill="url(#paint0_linear_138_437)"/>
<defs>
<linearGradient id="paint0_linear_138_437" x1="2" y1="-0.5" x2="50.0035" y2="41.996" gradientUnits="userSpaceOnUse">
<stop stop-color="#FF0000"/>
<stop offset="1" stop-color="#8F8E8E"/>
</linearGradient>
</defs>
</svg>
