<svg width="40" height="40" viewBox="0 0 40 40" fill="none" xmlns="http://www.w3.org/2000/svg">
<g clip-path="url(#clip0_138_458)">
<path d="M19.3516 0.109375C17.8906 0.65625 17.5469 2.48438 18.7109 3.5C18.8516 3.63281 19.0469 3.75781 19.1328 3.78906C19.2969 3.83594 19.2969 3.88281 19.2969 5.90625V7.96875H17.9688H16.6406V5.85938V3.74219L16.4453 3.55469C16.2344 3.34375 15.8281 3.29688 15.6172 3.46094C15.3359 3.67969 15.3125 3.86719 15.3125 5.92969V7.96875H13.9844H12.6641L12.6406 5.40625L12.6172 2.83594L12.3984 2.55469C12.0547 2.10156 11.8438 2.03125 10.8438 2.03125H9.95312L9.6875 1.625C9.28906 1.03125 8.80469 0.75 8.09375 0.71875C7.21094 0.671875 6.5625 1.0625 6.20312 1.83594C5.84375 2.60156 5.98438 3.40625 6.60156 4.03906C7.10938 4.5625 7.69531 4.75781 8.35938 4.625C8.89844 4.50781 9.34375 4.20312 9.64844 3.73438L9.88281 3.36719H10.6094L11.3281 3.35938V5.65625V7.94531L10.7266 7.99219C10.0078 8.04688 9.57812 8.1875 9.10156 8.51562C8.4375 8.96875 8.07031 9.70312 7.99219 10.7188L7.94531 11.3281H5.65625H3.35938L3.36719 10.6016V9.88281L3.73438 9.64844C4.20312 9.34375 4.50781 8.89844 4.625 8.35938C4.75781 7.69531 4.5625 7.10938 4.03906 6.60156C3.40625 5.98438 2.60156 5.84375 1.83594 6.20312C1.0625 6.5625 0.671875 7.21094 0.71875 8.09375C0.75 8.80469 1.03125 9.28906 1.625 9.6875L2.03125 9.95312V10.7969C2.03125 11.7891 2.125 12.0703 2.54688 12.3906L2.83594 12.6172L5.40625 12.6406L7.96875 12.6641V13.9844V15.3125H5.92969C3.86719 15.3125 3.67969 15.3359 3.46094 15.6172C3.29688 15.8281 3.34375 16.2344 3.55469 16.4453L3.74219 16.6406H5.85938H7.96875V17.9688V19.2969H5.90625H3.84375L3.75 19.0625C3.63281 18.7734 3.11719 18.3047 2.74219 18.1406C2.39062 17.9922 1.60938 17.9922 1.25 18.1406C0.859375 18.3047 0.5 18.6328 0.25 19.0547C0.0703125 19.3594 0.0390625 19.5 0.0390625 20C0.0390625 20.5 0.0703125 20.6406 0.25 20.9453C0.5 21.3672 0.859375 21.6953 1.25 21.8594C1.60938 22.0078 2.39062 22.0078 2.74219 21.8594C3.11719 21.6953 3.63281 21.2266 3.75 20.9375L3.84375 20.7031H5.90625H7.96875V22.0312V23.3594H5.85938H3.74219L3.55469 23.5547C3.34375 23.7656 3.29688 24.1719 3.46094 24.3828C3.67969 24.6641 3.86719 24.6875 5.92969 24.6875H7.96875V26.0156V27.3359L5.40625 27.3594L2.83594 27.3828L2.55469 27.6016C2.125 27.9297 2.07031 28.0703 2.03125 29.1328L1.99219 30.1016L1.71875 30.2578C1.3125 30.4766 1.11719 30.6875 0.898438 31.125C0.546875 31.8203 0.65625 32.7031 1.16406 33.2891C2.17969 34.4844 4.13281 34.0469 4.57812 32.5234C4.82031 31.6875 4.49219 30.8359 3.73438 30.3516L3.36719 30.1172V29.3906L3.35938 28.6719H5.65625H7.94531L7.99219 29.2734C8.07031 30.2969 8.42188 30.9844 9.10938 31.4766C9.5625 31.8047 9.96875 31.9375 10.7109 32L11.3281 32.0547V34.3438V36.6406L10.6094 36.6328H9.88281L9.64844 36.2656C9.34375 35.7969 8.89844 35.4922 8.35938 35.375C7.69531 35.2422 7.10938 35.4375 6.60156 35.9609C5.98438 36.5938 5.84375 37.3984 6.20312 38.1719C6.85938 39.5781 8.82031 39.6953 9.67969 38.375L9.94531 37.9688H10.7969C11.7891 37.9688 12.0703 37.8828 12.3906 37.4531L12.6172 37.1641L12.6406 34.5938L12.6641 32.0312H13.9844H15.3125V34.0703C15.3125 36.1328 15.3359 36.3203 15.6172 36.5391C15.8281 36.7031 16.2344 36.6562 16.4453 36.4453L16.6406 36.2578V34.1406V32.0312H17.9688H19.2969V34.0938V36.1562L19.0625 36.25C18.7734 36.3672 18.3047 36.8828 18.1406 37.2578C17.9922 37.6094 17.9922 38.3906 18.1406 38.75C18.3047 39.1406 18.6328 39.5 19.0547 39.75C19.3594 39.9297 19.5 39.9609 20 39.9609C20.5 39.9609 20.6406 39.9297 20.9453 39.75C21.3672 39.5 21.6953 39.1406 21.8594 38.75C22.0078 38.3906 22.0078 37.6094 21.8594 37.2578C21.6953 36.8828 21.2266 36.3672 20.9375 36.25L20.7031 36.1562V34.0938V32.0312H22.0312H23.3594V34.1406V36.2578L23.5547 36.4453C23.7656 36.6562 24.1719 36.7031 24.3828 36.5391C24.6641 36.3203 24.6875 36.1328 24.6875 34.0703V32.0312H26.0156H27.3359L27.3594 34.5938L27.3828 37.1641L27.6016 37.4453C27.9297 37.875 28.0703 37.9219 29.1328 37.9688L30.1016 38.0078L30.2578 38.2812C30.6172 38.9375 31.2344 39.2969 31.9844 39.2969C33.375 39.2891 34.2891 38.0391 33.8906 36.6875C33.8281 36.4922 33.6406 36.2109 33.3984 35.9609C32.8906 35.4375 32.3047 35.2422 31.6406 35.375C31.1016 35.4922 30.6562 35.7969 30.3516 36.2656L30.1172 36.6328H29.3984L28.6719 36.6406V34.3438V32.0547L29.2891 32C30.0312 31.9375 30.4375 31.8047 30.8906 31.4766C31.5781 30.9844 31.9141 30.3203 32 29.2891L32.0547 28.6719H34.3438H36.6406L36.6328 29.3906V30.1172L36.2656 30.3516C35.7969 30.6562 35.4922 31.1016 35.375 31.6406C35.2422 32.3047 35.4375 32.8906 35.9609 33.3984C36.2109 33.6406 36.4922 33.8281 36.6875 33.8906C38.0391 34.2891 39.2969 33.375 39.2969 31.9844C39.2969 31.2344 38.9375 30.6172 38.2812 30.2578L38.0078 30.1016L37.9688 29.1328C37.9219 28.0703 37.875 27.9297 37.4453 27.6016L37.1641 27.3828L34.5938 27.3594L32.0312 27.3359V26.0156V24.6875H34.0703C36.1328 24.6875 36.3203 24.6641 36.5391 24.3828C36.7031 24.1719 36.6562 23.7656 36.4453 23.5547L36.2578 23.3594H34.1406H32.0312V22.0312V20.7031H34.0938H36.1562L36.25 20.9375C36.3672 21.2266 36.8828 21.6953 37.2578 21.8594C37.6094 22.0078 38.3906 22.0078 38.75 21.8594C39.1406 21.6953 39.5 21.3672 39.75 20.9453C39.9297 20.6406 39.9609 20.5 39.9609 20C39.9609 19.5 39.9297 19.3594 39.75 19.0547C39.5 18.6328 39.1406 18.3047 38.75 18.1406C38.3906 17.9922 37.6094 17.9922 37.2578 18.1406C36.8828 18.3047 36.3672 18.7734 36.25 19.0625L36.1562 19.2969H34.0938H32.0312V17.9688V16.6406H34.1406H36.2578L36.4453 16.4453C36.6562 16.2344 36.7031 15.8281 36.5391 15.6172C36.3203 15.3359 36.1328 15.3125 34.0703 15.3125H32.0312V13.9844V12.6641L34.5938 12.6406L37.1641 12.6172L37.4531 12.3906C37.8828 12.0703 37.9688 11.7891 37.9688 10.7969V9.94531L38.375 9.67969C39.6953 8.82031 39.5781 6.85938 38.1719 6.20312C37.3984 5.84375 36.5938 5.98438 35.9609 6.60156C35.4375 7.10938 35.2422 7.69531 35.375 8.35938C35.4922 8.89844 35.7969 9.34375 36.2656 9.64844L36.6328 9.88281V10.6016L36.6406 11.3281H34.3438H32.0547L32 10.7109C31.9375 9.96875 31.8047 9.5625 31.4766 9.10938C30.9844 8.42188 30.2969 8.07031 29.2812 7.99219L28.6719 7.94531V5.65625V3.35938L29.3984 3.36719H30.1172L30.3516 3.73438C30.8359 4.49219 31.6875 4.82031 32.5234 4.57812C34.0469 4.13281 34.4844 2.17969 33.2891 1.16406C32.7031 0.65625 31.8203 0.546875 31.125 0.898438C30.6875 1.11719 30.4766 1.3125 30.2578 1.71875L30.1016 1.99219L29.1328 2.03125C28.0703 2.07031 27.9297 2.125 27.6016 2.55469L27.3828 2.83594L27.3594 5.40625L27.3359 7.96875H26.0156H24.6875V5.92969C24.6875 3.86719 24.6641 3.67969 24.3828 3.46094C24.1719 3.29688 23.7656 3.34375 23.5547 3.55469L23.3594 3.74219V5.85938V7.96875H22.0312H20.7031V5.90625V3.84375L20.9375 3.75C21.2266 3.63281 21.6953 3.11719 21.8594 2.74219C22.0078 2.39062 22.0078 1.60938 21.8594 1.25C21.6953 0.859375 21.3672 0.5 20.9688 0.265625C20.5391 0.015625 19.7969 -0.0546875 19.3516 0.109375ZM20.4297 1.52344C20.7266 1.8125 20.7188 2.21094 20.4219 2.47656C19.7969 3.04688 18.9688 2.11719 19.5703 1.52344C19.6875 1.39844 19.8516 1.32812 20 1.32812C20.1484 1.32812 20.3125 1.39844 20.4297 1.52344ZM8.42969 2.16406C8.89062 2.53906 8.60156 3.3125 8.00781 3.3125C7.42969 3.3125 7.13281 2.625 7.53906 2.22656C7.76562 1.99219 8.1875 1.96875 8.42969 2.16406ZM32.4609 2.22656C32.7109 2.46875 32.7109 2.8125 32.4688 3.09375C32.0547 3.58594 31.2578 3.21875 31.3594 2.58594C31.4453 2.03906 32.0781 1.83594 32.4609 2.22656ZM3.09375 7.53125C3.58594 7.94531 3.21875 8.74219 2.58594 8.64062C2.23438 8.58594 2.03125 8.34375 2.03125 7.99219C2.03125 7.42969 2.65625 7.14844 3.09375 7.53125ZM37.7734 7.53906C38.1641 7.92188 37.9609 8.55469 37.4141 8.64062C36.7812 8.74219 36.4141 7.94531 36.9062 7.53125C37.1875 7.28906 37.5312 7.28906 37.7734 7.53906ZM29.5938 9.38281C30.1328 9.49219 30.5078 9.88281 30.625 10.4219C30.6797 10.6953 30.7031 13.7969 30.6875 20.2344L30.6641 29.6484L30.4766 29.9688C30.375 30.1562 30.1562 30.375 29.9688 30.4766L29.6484 30.6641L20.2344 30.6875C13.7969 30.7031 10.6953 30.6797 10.4219 30.625C9.88281 30.5078 9.49219 30.1328 9.38281 29.5938C9.26562 29.0625 9.26562 10.9375 9.38281 10.4062C9.48438 9.91406 9.88281 9.49219 10.3438 9.38281C10.8125 9.28125 29.1094 9.27344 29.5938 9.38281ZM2.5 19.5938C2.96875 20.1875 2.25 20.9375 1.60938 20.5156C1.21094 20.2578 1.25781 19.6641 1.69531 19.4453C2.01562 19.2891 2.30469 19.3359 2.5 19.5938ZM38.5547 19.6328C39.0156 20.2891 38.0547 21.0156 37.5234 20.4219C37.3047 20.1797 37.2969 19.8516 37.5 19.5859C37.7578 19.2578 38.3125 19.2812 38.5547 19.6328ZM3.09375 31.5156C3.54688 31.8984 3.25 32.6562 2.64844 32.6562C2.01562 32.6562 1.78906 31.6406 2.36719 31.4062C2.65625 31.2891 2.875 31.3203 3.09375 31.5156ZM37.8359 31.5703C38.0312 31.8125 38.0078 32.2344 37.7734 32.4609C37.5312 32.7109 37.1875 32.7109 36.9062 32.4688C36.4141 32.0547 36.7812 31.2578 37.4141 31.3594C37.5703 31.3828 37.7578 31.4766 37.8359 31.5703ZM8.50781 36.9297C8.86719 37.3359 8.5625 37.9688 7.99219 37.9688C7.46875 37.9688 7.17188 37.3906 7.46875 36.9688C7.73438 36.5938 8.1875 36.5781 8.50781 36.9297ZM32.4844 36.9219C32.8516 37.3359 32.5625 37.9688 32.0156 37.9688C31.6562 37.9688 31.4219 37.7812 31.3594 37.4609C31.2344 36.7812 32.0156 36.4062 32.4844 36.9219ZM20.4297 37.5156C20.7969 37.8359 20.6484 38.5234 20.1953 38.6406C19.7344 38.7578 19.3438 38.4297 19.3594 37.9453C19.3672 37.6328 19.6797 37.3438 20 37.3438C20.125 37.3438 20.3203 37.4219 20.4297 37.5156Z" fill="url(#paint0_linear_138_458)"/>
<path d="M15.5469 14.125C15.3984 14.1953 15.2188 14.3594 15.1406 14.4922C15.0234 14.6953 12.6562 25.1172 12.6562 25.4219C12.6562 25.6172 12.9922 25.9375 13.25 25.9844C13.4375 26.0235 13.5391 25.9844 13.7188 25.836C13.9297 25.6563 13.9766 25.5 14.3438 23.8516L14.7344 22.0703L15.9922 22.0469L17.25 22.0313L17.3047 22.2813C17.7344 24.2657 18.0547 25.586 18.1562 25.7344C18.3125 25.9844 18.6719 26.0625 18.9688 25.9063C19.2266 25.7735 19.2969 25.6407 19.2969 25.3125C19.2969 24.9766 16.9766 14.6485 16.8594 14.4532C16.7344 14.25 16.25 13.9844 16 13.9844C15.8984 13.9844 15.6953 14.0469 15.5469 14.125ZM16.4922 18.6172C16.7344 19.7032 16.9141 20.6094 16.8984 20.6407C16.8828 20.6797 16.4609 20.7032 15.9688 20.7032C15.4766 20.7032 15.0781 20.6797 15.0781 20.6407C15.0703 20.4766 15.9766 16.5703 16.0156 16.6094C16.0391 16.6328 16.25 17.5391 16.4922 18.6172Z" fill="url(#paint1_linear_138_458)"/>
<path d="M21.0547 14.0781C20.8047 14.2109 20.7031 14.3828 20.7031 14.6953C20.7031 14.9219 20.75 15.0234 20.9062 15.1484C21.0859 15.2891 21.2266 15.3125 21.8828 15.3125H22.6562V20V24.6875H21.8828C21.2266 24.6875 21.0859 24.7109 20.9062 24.8516C20.7578 24.9688 20.7031 25.0859 20.7031 25.2734C20.7031 25.9922 20.7969 26.0156 23.3359 26.0156C25.6016 26.0156 25.7344 25.9922 25.9219 25.5938C26.0547 25.3359 25.9922 25.0547 25.7656 24.8438C25.6172 24.7109 25.4922 24.6875 24.7891 24.6875H23.9844V20V15.3125H24.7891C25.4922 15.3125 25.6172 15.2891 25.7656 15.1562C26.1094 14.8359 26.0391 14.2969 25.625 14.0859C25.3672 13.9531 21.2891 13.9453 21.0547 14.0781Z" fill="url(#paint2_linear_138_458)"/>
</g>
<defs>
<linearGradient id="paint0_linear_138_458" x1="0.500001" y1="-1.5" x2="58.4764" y2="50.0265" gradientUnits="userSpaceOnUse">
<stop stop-color="#FF0000"/>
<stop offset="1" stop-color="#8F8E8E"/>
</linearGradient>
<linearGradient id="paint1_linear_138_458" x1="12.7329" y1="13.527" x2="26.636" y2="20.3599" gradientUnits="userSpaceOnUse">
<stop stop-color="#FF0000"/>
<stop offset="1" stop-color="#8F8E8E"/>
</linearGradient>
<linearGradient id="paint2_linear_138_458" x1="20.7642" y1="13.5242" x2="32.6885" y2="18.1832" gradientUnits="userSpaceOnUse">
<stop stop-color="#FF0000"/>
<stop offset="1" stop-color="#8F8E8E"/>
</linearGradient>
<clipPath id="clip0_138_458">
<rect width="40" height="40" fill="white"/>
</clipPath>
</defs>
</svg>
