<svg width="40" height="40" viewBox="0 0 40 40" fill="none" xmlns="http://www.w3.org/2000/svg">
<g clip-path="url(#clip0_138_431)">
<path d="M5.82097 0.0468674C3.8366 0.36718 2.07097 1.64843 1.22722 3.37499C0.703785 4.42968 0.59441 4.92968 0.59441 6.1328C0.586597 7.34374 0.703785 7.84374 1.20378 8.86718C2.20378 10.8828 4.11785 12.1328 6.37566 12.2422C7.57097 12.3047 8.30535 12.1484 9.39128 11.6172L10.2272 11.2031L11.0241 12C11.7585 12.7422 11.8132 12.8125 11.7116 12.9531C11.6491 13.0312 11.4303 13.3281 11.2194 13.6016C10.1022 15.0859 9.42253 16.7266 9.14128 18.6719L9.01628 19.5703H8.25066H7.48503L7.34441 19.125C7.1491 18.4922 6.88347 18.0703 6.36003 17.5703C5.23503 16.5 3.71941 16.2812 2.30535 16.9844C0.945972 17.6562 0.133472 19.2187 0.37566 20.6797C0.774097 23.0859 3.3366 24.4219 5.50847 23.3594C6.36003 22.9453 7.23503 21.8672 7.39128 21.0469L7.43816 20.7812H8.23503H9.03191L9.12566 21.5547C9.36785 23.4844 10.1803 25.4219 11.3913 26.9375C11.61 27.2187 11.7975 27.4687 11.7975 27.4922C11.7975 27.5234 11.4538 27.8906 11.0241 28.3125L10.2507 29.0781L9.76628 28.75C6.71941 26.6797 2.53972 27.7734 0.860035 31.0859C0.430347 31.9219 0.305347 32.4453 0.258472 33.5312C0.211597 34.6719 0.289722 35.2187 0.633472 36.0781C1.6491 38.625 4.37566 40.2734 6.99285 39.9297C9.57097 39.5859 11.5085 37.9531 12.235 35.5078C12.4069 34.9219 12.4382 34.6484 12.446 33.8672C12.4538 32.5234 12.1335 31.4609 11.4069 30.3906L11.0788 29.9062L11.86 29.1172L12.6491 28.3359L12.9303 28.5625C14.0866 29.4844 15.4772 30.2422 16.7194 30.625C17.4928 30.8672 18.6647 31.0937 19.11 31.0937H19.3757V31.8984V32.7031L18.9303 32.8437C17.2663 33.3516 16.1803 35.1094 16.4694 36.8047C16.61 37.6094 16.8991 38.1562 17.4928 38.7578C18.6022 39.8672 20.1257 40.1406 21.5397 39.4766C22.1413 39.1953 22.946 38.3906 23.2272 37.7891C24.1491 35.8281 23.1647 33.5469 21.1022 32.8516L20.5866 32.6719V31.9062V31.1328L20.821 31.1094C23.0632 30.9141 25.0475 30.125 26.8991 28.6797L27.3522 28.3281L28.1413 29.1172L28.9303 29.9062L28.61 30.3828C27.86 31.5078 27.5632 32.4844 27.5553 33.8281C27.5553 34.875 27.6882 35.5156 28.0866 36.3828C29.571 39.6016 33.3678 40.9141 36.485 39.2969C38.0397 38.4844 39.1725 37.0469 39.61 35.3516C39.821 34.5156 39.821 33.2187 39.61 32.375C39.11 30.4219 37.7194 28.8437 35.8678 28.1328C35.0163 27.8125 34.3053 27.7031 33.3053 27.7578C32.11 27.8203 31.1335 28.1484 30.2116 28.7969C30.0085 28.9453 29.821 29.0625 29.7819 29.0625C29.7507 29.0625 29.3757 28.7109 28.9538 28.2891L28.1803 27.5156L28.6569 26.8828C29.9069 25.2266 30.6335 23.4766 30.8757 21.5547L30.9694 20.7812H31.7663H32.5632L32.61 21.0469C32.7663 21.875 33.6335 22.9453 34.5007 23.3672C36.6491 24.4297 39.2272 23.0781 39.6257 20.6797C40.0085 18.3672 37.8522 16.2266 35.5319 16.625C34.1647 16.8594 33.0632 17.8203 32.6569 19.125L32.5163 19.5703H31.7507H30.985L30.8522 18.6172C30.7741 18.0859 30.6647 17.5625 30.61 17.4453C30.4147 17.0391 29.7663 17 29.5944 17.3906C29.5241 17.5469 29.5319 17.7578 29.6335 18.3828C30.1569 21.4609 29.2663 24.5234 27.2038 26.7969L26.7428 27.3047L26.6882 26.9844C26.5944 26.4609 26.2272 25.7734 25.8288 25.3828C25.3288 24.8906 24.6725 24.5547 23.5632 24.2187C23.0319 24.0547 22.5944 23.8828 22.5475 23.8047C22.4772 23.7031 22.571 23.5781 23.071 23.1172C24.0397 22.2266 24.7038 21.1719 24.9147 20.1719C25.0319 19.6016 25.0163 17.5937 24.8913 16.875C24.6647 15.6406 24.2507 14.8125 23.4382 13.9844C22.1725 12.6875 20.2507 12.2109 18.5397 12.7656C17.6882 13.0391 17.4538 13.3125 17.6647 13.7812C17.8053 14.0937 18.1413 14.1641 18.5944 13.9844C18.8053 13.8984 19.2038 13.7969 19.485 13.7422C20.9538 13.4922 22.6022 14.3672 23.3132 15.7891C23.5788 16.3203 23.821 17.1484 23.7272 17.2344C23.7038 17.2578 23.4538 17.0859 23.1725 16.8437C22.4225 16.2109 22.2272 16.1797 20.9928 16.4766L20.0007 16.7266L19.0163 16.4844C17.7428 16.1641 17.5241 16.2109 16.7272 16.9219C16.5085 17.1172 16.2975 17.2656 16.2741 17.2344C16.1882 17.1484 16.4069 16.3594 16.6803 15.7891C17.0007 15.125 17.0007 15.0859 16.7897 14.8125C16.5866 14.5547 16.1725 14.5312 15.9303 14.7734C15.7272 14.9766 15.4303 15.625 15.2194 16.3047C15.0163 16.9922 14.9303 19.3437 15.0788 20.0937C15.2819 21.1406 15.9303 22.1953 16.9225 23.1094C17.6803 23.8125 17.6647 23.8672 16.5475 24.1797C15.5163 24.4687 14.6335 24.9062 14.1725 25.375C13.7741 25.7734 13.4069 26.4687 13.3132 26.9844L13.2585 27.3047L12.7975 26.7969C11.5241 25.3984 10.6725 23.6562 10.3522 21.8203C10.2038 20.9609 10.2038 19.3516 10.3522 18.4922C10.9772 14.9219 13.5475 11.9531 16.9928 10.8359C18.9382 10.2031 21.3366 10.2344 23.2194 10.9062C25.2428 11.6328 26.9928 13 28.1569 14.75C28.696 15.5625 28.8444 15.7031 29.1413 15.7031C29.36 15.7031 29.6882 15.3672 29.6882 15.1328C29.6882 14.9297 29.1178 14.0078 28.5319 13.2578L28.1725 12.8047L28.9772 12L29.7741 11.2031L30.61 11.6172C31.696 12.1484 32.4303 12.3047 33.6257 12.2422C35.8835 12.1328 37.7975 10.8828 38.7975 8.86718C39.2975 7.84374 39.4147 7.34374 39.4069 6.1328C39.4069 4.92968 39.2975 4.42968 38.7741 3.37499C38.196 2.18749 37.0632 1.10937 35.8288 0.546867C34.9616 0.156242 34.4303 0.0468674 33.321 0.0468674C32.11 0.0468674 31.6178 0.156242 30.5475 0.67968C29.8991 0.999992 29.7038 1.14843 29.0241 1.82812C28.1413 2.71874 27.7194 3.41405 27.4069 4.49218C27.1725 5.30468 27.1569 6.86718 27.3678 7.65624C27.5632 8.37499 28.0319 9.32812 28.5007 9.92968L28.8913 10.4453L28.1257 11.2109L27.3522 11.9844L26.8991 11.6328C25.1178 10.2422 23.1569 9.42968 21.1178 9.24218L20.6257 9.1953V8.39843V7.60155L20.8678 7.54687C21.7194 7.37499 22.821 6.47655 23.2272 5.60937C24.2507 3.4453 22.9069 0.92968 20.5241 0.531242C19.4225 0.351555 18.1882 0.789055 17.4069 1.6328C16.0475 3.09374 16.1022 5.2578 17.5319 6.62499C18.0007 7.0703 18.6647 7.45312 19.1413 7.54687L19.3757 7.59374V8.39843V9.1953L18.7819 9.24999C17.0319 9.40624 14.946 10.2422 13.446 11.375C13.1725 11.5859 12.8757 11.8047 12.7975 11.8672C12.6569 11.9687 12.5866 11.9219 11.8757 11.2109L11.11 10.4453L11.5007 9.92968C11.9694 9.32812 12.4382 8.37499 12.6335 7.65624C12.821 6.95312 12.821 5.31249 12.6335 4.60937C12.0553 2.49999 10.3288 0.765617 8.24285 0.203117C7.7741 0.0703049 6.25847 -0.0234451 5.82097 0.0468674ZM7.69597 1.28905C9.43035 1.64843 10.8444 2.96093 11.4538 4.76562C11.6803 5.42968 11.6647 6.89062 11.4225 7.61718C11.2428 8.14843 10.8444 8.93749 10.7038 9.02343C10.6725 9.04687 10.5319 8.83593 10.3991 8.55468C10.2428 8.21874 9.98503 7.85937 9.62566 7.49218C9.15691 7.01562 9.10222 6.92968 9.19597 6.81249C9.25066 6.74218 9.37566 6.43749 9.4616 6.14062C9.80535 5.05468 9.49285 3.92187 8.63347 3.1328C8.05535 2.60937 7.49285 2.39843 6.68035 2.39843C5.86785 2.39843 5.30535 2.60937 4.72722 3.1328C3.86785 3.92187 3.55535 5.05468 3.8991 6.14062C3.98503 6.43749 4.11003 6.74218 4.16472 6.81249C4.25847 6.92968 4.20378 7.01562 3.73503 7.49218C3.37566 7.85937 3.11785 8.21874 2.9616 8.55468C2.82878 8.83593 2.68816 9.04687 2.65691 9.02343C2.51628 8.93749 2.11785 8.14843 1.93816 7.61718C1.78972 7.16405 1.75847 6.90624 1.75847 6.1328C1.76628 5.31249 1.78972 5.11718 1.97722 4.5703C2.81316 2.17968 5.25847 0.781242 7.69597 1.28905ZM34.3366 1.28905C36.2116 1.67968 37.7428 3.21874 38.1725 5.12499C38.3366 5.8828 38.2897 6.92968 38.0475 7.65624C37.8835 8.15624 37.4772 8.93749 37.3444 9.02343C37.3132 9.04687 37.1725 8.83593 37.0397 8.55468C36.8835 8.21874 36.6257 7.85937 36.2663 7.49218C35.7975 7.01562 35.7428 6.92968 35.8366 6.81249C35.8913 6.74218 36.0163 6.43749 36.1022 6.14062C36.446 5.05468 36.1335 3.92187 35.2741 3.1328C34.696 2.60937 34.1335 2.39843 33.321 2.39843C32.5085 2.39843 31.946 2.60937 31.3678 3.1328C30.5085 3.92187 30.196 5.05468 30.5397 6.14062C30.6257 6.43749 30.7507 6.74218 30.8053 6.81249C30.8991 6.92968 30.8444 7.01562 30.3757 7.49218C30.0163 7.85937 29.7585 8.21874 29.5944 8.55468C29.3132 9.16405 29.2819 9.15624 28.8757 8.32812C28.4772 7.53124 28.3366 6.78905 28.3913 5.85937C28.4616 4.6328 28.86 3.68749 29.6647 2.81249C30.8913 1.48437 32.61 0.92968 34.3366 1.28905ZM21.071 1.91405C21.5397 2.14843 21.985 2.60937 22.2116 3.11718C22.4538 3.6328 22.446 4.5078 22.2038 5.03905C21.9694 5.54687 21.485 6.03905 20.985 6.26562C20.4303 6.5078 19.571 6.51562 19.0241 6.26562C17.9382 5.77343 17.36 4.53905 17.6882 3.41405C18.11 1.96874 19.7194 1.2578 21.071 1.91405ZM7.48503 3.74218C8.38347 4.20312 8.69597 5.35155 8.15691 6.22655C7.50066 7.28124 5.86003 7.28905 5.2116 6.23437C4.44597 4.99999 5.39128 3.42968 6.81316 3.55468C7.01628 3.5703 7.31316 3.65624 7.48503 3.74218ZM34.1178 3.73437C35.3757 4.3828 35.3835 6.20312 34.1178 6.83593C32.4538 7.66405 30.821 5.71874 31.9303 4.23437C32.4303 3.56249 33.36 3.35155 34.1178 3.73437ZM5.74285 8.05468C6.43035 8.30468 7.2741 8.23437 8.14128 7.85937C8.24285 7.81249 8.39128 7.91405 8.73503 8.2578C9.19597 8.71874 9.47722 9.20312 9.60222 9.76562C9.67253 10.0625 9.65691 10.0937 9.42253 10.2656C9.03191 10.5625 8.54753 10.7812 7.91472 10.9453C6.56316 11.2891 4.92253 11.0078 3.93816 10.2656C3.70378 10.0937 3.68816 10.0625 3.75847 9.76562C3.88347 9.20312 4.16472 8.71874 4.62566 8.2578C4.96941 7.91405 5.11785 7.81249 5.21941 7.85937C5.28972 7.89062 5.53191 7.97655 5.74285 8.05468ZM32.3835 8.05468C33.071 8.30468 33.9147 8.23437 34.7819 7.85937C34.8835 7.81249 35.0319 7.91405 35.3757 8.2578C35.8366 8.71874 36.1178 9.20312 36.2428 9.76562C36.3132 10.0625 36.2975 10.0937 36.0632 10.2656C35.6725 10.5625 35.1882 10.7812 34.5553 10.9453C33.2038 11.2891 31.5632 11.0078 30.5788 10.2656C30.3444 10.0937 30.3288 10.0625 30.3991 9.76562C30.5241 9.20312 30.8053 8.71874 31.2663 8.2578C31.61 7.91405 31.7585 7.81249 31.86 7.85937C31.9303 7.89062 32.1725 7.97655 32.3835 8.05468ZM18.7507 17.6328C19.7116 17.8984 20.2897 17.8984 21.2741 17.625L22.0397 17.4141L22.4538 17.7891C22.8288 18.1328 23.3288 18.4375 23.696 18.5469C23.8991 18.6094 23.8835 19.6172 23.6647 20.2578C23.196 21.6484 21.6882 23.0312 20.3757 23.2734C18.9538 23.5312 16.9303 22.0156 16.3366 20.2578C16.1178 19.6172 16.1022 18.6094 16.3132 18.5469C16.7663 18.3984 17.0866 18.2109 17.485 17.8437C17.7272 17.6172 17.946 17.4297 17.9694 17.4219C17.9928 17.4219 18.3444 17.5156 18.7507 17.6328ZM4.89128 17.9609C5.37566 18.1797 5.81316 18.5937 6.07878 19.1016C6.25847 19.4375 6.28972 19.5859 6.28972 20.1562C6.28972 20.7266 6.25847 20.875 6.07878 21.2109C5.61785 22.0781 4.87566 22.5312 3.90691 22.5391C3.42253 22.5391 3.24285 22.5 2.87566 22.3203C0.945972 21.3672 1.11003 18.6016 3.14128 17.875C3.66472 17.6953 4.35222 17.7266 4.89128 17.9609ZM37.1413 18C37.9928 18.4219 38.4694 19.1875 38.4694 20.1562C38.4694 21.1328 37.9928 21.8906 37.1257 22.3203C36.7585 22.5 36.5788 22.5391 36.0944 22.5391C35.1257 22.5312 34.3835 22.0781 33.9225 21.2109C33.7428 20.875 33.7116 20.7266 33.7116 20.1562C33.7116 19.6094 33.7428 19.4297 33.8991 19.1406C34.5397 17.8984 35.9382 17.4141 37.1413 18ZM19.0241 24.3437C19.5475 24.5 20.4303 24.5 20.985 24.3359C21.321 24.2422 21.446 24.2266 21.4694 24.2969C21.4928 24.3516 21.6022 24.5 21.7272 24.6406L21.946 24.8906L20.9694 25.4609L20.0007 26.0312L19.0319 25.4609L18.0553 24.8906L18.2897 24.6328C18.4147 24.4844 18.5163 24.3359 18.5163 24.2969C18.5163 24.1953 18.5632 24.1953 19.0241 24.3437ZM18.0319 26.2422C19.5788 27.1484 19.86 27.2578 20.321 27.1172C20.4928 27.0625 21.2585 26.6562 22.0319 26.2031L23.4225 25.3906L23.9928 25.6016C24.4225 25.7578 24.6725 25.9141 24.9694 26.2109C25.4303 26.6562 25.5475 26.9609 25.5475 27.7422V28.25L24.946 28.6172C21.9772 30.3906 18.0241 30.3906 15.0632 28.6172L14.4538 28.25V27.7422C14.4538 26.9609 14.571 26.6562 15.0319 26.2031C15.321 25.9219 15.5866 25.7578 15.9772 25.6094C16.2819 25.4922 16.5632 25.4141 16.6178 25.4297C16.6647 25.4453 17.3053 25.8125 18.0319 26.2422ZM7.61785 29.0312C8.89128 29.3594 10.1725 30.4141 10.7741 31.6484C11.4772 33.0781 11.4772 34.6016 10.7663 36.0078C10.5866 36.375 10.3991 36.6797 10.3522 36.6953C10.3132 36.7031 10.1569 36.4687 10.0163 36.1797C9.85222 35.8203 9.60222 35.4766 9.26628 35.1484L8.76628 34.6484L8.94597 34.2891C9.3366 33.5312 9.35222 32.5625 8.99285 31.7578C8.7741 31.2656 8.13347 30.6172 7.60222 30.3437C7.18816 30.1406 7.07878 30.1172 6.36785 30.1172C5.68816 30.1172 5.53191 30.1406 5.14128 30.3281C4.54753 30.6016 4.06316 31.0703 3.74285 31.6562C3.48503 32.125 3.47722 32.1875 3.47722 32.9687C3.47722 33.7031 3.50066 33.8359 3.68816 34.2187L3.8991 34.6406L3.40691 35.1562C2.91472 35.6641 2.73503 35.9375 2.49285 36.5156L2.36785 36.8203L2.19597 36.5781C1.69597 35.8672 1.40691 34.8672 1.40691 33.8281C1.40691 32.4297 1.8366 31.3594 2.80535 30.3906C4.14128 29.0469 5.80535 28.5781 7.61785 29.0312ZM34.8053 29.0234C36.6257 29.4922 38.0085 30.8594 38.4694 32.6328C38.6178 33.1875 38.6335 34.3437 38.5085 34.9375C38.4147 35.3906 37.9616 36.4375 37.7663 36.6484C37.6491 36.7812 37.6178 36.75 37.36 36.2266C37.1803 35.8672 36.9069 35.4922 36.5944 35.1719L36.1022 34.6797L36.3132 34.2344C36.61 33.6094 36.6491 32.6484 36.4069 32.0078C35.7975 30.3828 33.9616 29.6406 32.3913 30.3906C30.9538 31.0703 30.3288 32.8672 31.0397 34.2891L31.235 34.6719L30.7116 35.2031C30.3835 35.5469 30.1022 35.9375 29.9303 36.2812L29.6647 36.8203L29.3991 36.3984C28.9694 35.7187 28.735 34.8594 28.7272 33.9453C28.7116 33.0156 28.821 32.5156 29.2194 31.6797C29.8444 30.375 31.0866 29.3672 32.5007 29.0234C33.0944 28.8828 34.2428 28.8828 34.8053 29.0234ZM7.01628 31.375C7.65691 31.6406 8.07097 32.2734 8.07097 32.9687C8.07097 33.5078 7.91472 33.875 7.53191 34.25C6.44597 35.3047 4.61785 34.5156 4.61003 32.9844C4.61003 32.2891 4.95378 31.7187 5.57097 31.4141C5.96941 31.2187 6.60222 31.1953 7.01628 31.375ZM34.4616 31.4687C34.7897 31.6328 34.946 31.7812 35.1413 32.1094C35.3835 32.5078 35.3991 32.5781 35.3757 33.1016C35.3522 33.5781 35.3132 33.7109 35.1022 34C34.7897 34.4375 34.1803 34.7656 33.6803 34.7656C32.5788 34.7656 31.696 33.6719 31.9616 32.6328C32.0944 32.0937 32.4382 31.6641 32.9147 31.4375C33.4694 31.1797 33.9303 31.1875 34.4616 31.4687ZM21.0475 34.0937C21.8991 34.5156 22.3835 35.2891 22.3835 36.25C22.3835 37.2187 21.8991 37.9844 21.0319 38.4141C20.11 38.8672 18.9303 38.6406 18.2428 37.875C16.4694 35.9219 18.6803 32.9375 21.0475 34.0937ZM8.53972 36.0859C9.07097 36.6797 9.42253 37.6016 9.2116 37.8594C9.05535 38.0469 8.12566 38.4922 7.57097 38.6406C6.9616 38.7969 5.82097 38.8203 5.23503 38.6797C4.73503 38.5547 3.93035 38.2109 3.5866 37.9609C3.37566 37.8125 3.35222 37.7656 3.3991 37.5078C3.48503 37.0078 3.89128 36.2891 4.28972 35.9062C4.7116 35.5156 4.81316 35.4844 5.14128 35.6562C5.25847 35.7187 5.57097 35.8125 5.84441 35.8594C6.39128 35.9687 7.0866 35.875 7.57878 35.625C7.84441 35.4922 7.86003 35.4922 8.05535 35.6328C8.16472 35.7109 8.38347 35.9141 8.53972 36.0859ZM32.5397 35.7109C32.7428 35.7969 33.1569 35.8906 33.4616 35.9141C33.9382 35.9453 34.1257 35.9219 34.6413 35.75L35.2507 35.5391L35.5866 35.8125C36.0241 36.1719 36.3678 36.7187 36.5319 37.3281C36.696 37.9062 36.7038 37.8828 35.821 38.3125C34.3366 39.0391 32.5319 38.9609 31.1178 38.1094C30.7038 37.8594 30.6882 37.8437 30.7272 37.5625C30.7897 37.0703 31.1413 36.4219 31.5944 35.9766C31.8288 35.7422 32.0553 35.5469 32.0944 35.5469C32.1335 35.5469 32.3366 35.6172 32.5397 35.7109Z" fill="url(#paint0_linear_138_431)"/>
</g>
<defs>
<linearGradient id="paint0_linear_138_431" x1="2" y1="0.499998" x2="57.9637" y2="48.6237" gradientUnits="userSpaceOnUse">
<stop stop-color="#FF0000"/>
<stop offset="1" stop-color="#8F8E8E"/>
</linearGradient>
<clipPath id="clip0_138_431">
<rect width="40" height="40" fill="white"/>
</clipPath>
</defs>
</svg>
