<svg width="16" height="20" viewBox="0 0 16 20" fill="none" xmlns="http://www.w3.org/2000/svg">
<path d="M4.7175 3.58834C4.66697 3.46654 4.65369 3.33248 4.67936 3.20314C4.70502 3.07379 4.76846 2.95496 4.86167 2.86167L7.52833 0.195006C7.59025 0.133021 7.66377 0.0838487 7.74471 0.0502992C7.82564 0.0167496 7.91239 -0.000518799 8 -0.000518799C8.08761 -0.000518799 8.17436 0.0167496 8.25529 0.0502992C8.33623 0.0838487 8.40975 0.133021 8.47167 0.195006L11.1383 2.86167C11.2317 2.95491 11.2953 3.07374 11.321 3.20313C11.3468 3.33252 11.3336 3.46665 11.2831 3.58853C11.2326 3.71041 11.1471 3.81457 11.0373 3.88782C10.9276 3.96107 10.7986 4.00011 10.6667 4.00001H8.66667V7.33334C8.66667 7.51015 8.59643 7.67972 8.47141 7.80474C8.34638 7.92977 8.17681 8 8 8C7.82319 8 7.65362 7.92977 7.5286 7.80474C7.40357 7.67972 7.33333 7.51015 7.33333 7.33334V4.00001H5.33333C5.20148 3.99998 5.0726 3.96085 4.96298 3.88758C4.85336 3.8143 4.76793 3.71017 4.7175 3.58834ZM15.3333 9.33334H0.666667C0.489856 9.33334 0.320287 9.40358 0.195262 9.5286C0.070238 9.65362 0 9.82319 0 10C0 10.1768 0.070238 10.3464 0.195262 10.4714C0.320287 10.5964 0.489856 10.6667 0.666667 10.6667H15.3333C15.5101 10.6667 15.6797 10.5964 15.8047 10.4714C15.9298 10.3464 16 10.1768 16 10C16 9.82319 15.9298 9.65362 15.8047 9.5286C15.6797 9.40358 15.5101 9.33334 15.3333 9.33334ZM10.6667 16H8.66667V12.6667C8.66667 12.4899 8.59643 12.3203 8.47141 12.1953C8.34638 12.0702 8.17681 12 8 12C7.82319 12 7.65362 12.0702 7.5286 12.1953C7.40357 12.3203 7.33333 12.4899 7.33333 12.6667V16H5.33333C5.2014 15.9999 5.07241 16.0389 4.96268 16.1122C4.85295 16.1854 4.76742 16.2896 4.71692 16.4115C4.66642 16.5334 4.65321 16.6675 4.67898 16.7969C4.70475 16.9263 4.76833 17.0451 4.86167 17.1383L7.52833 19.805C7.59025 19.867 7.66377 19.9162 7.74471 19.9497C7.82564 19.9833 7.91239 20.0005 8 20.0005C8.08761 20.0005 8.17436 19.9833 8.25529 19.9497C8.33623 19.9162 8.40975 19.867 8.47167 19.805L11.1383 17.1383C11.2317 17.0451 11.2953 16.9263 11.321 16.7969C11.3468 16.6675 11.3336 16.5334 11.2831 16.4115C11.2326 16.2896 11.1471 16.1854 11.0373 16.1122C10.9276 16.0389 10.7986 15.9999 10.6667 16Z" fill="black"/>
</svg>
