<svg width="40" height="40" viewBox="0 0 40 40" fill="none" xmlns="http://www.w3.org/2000/svg">
<path d="M20.742 1.96094C20.0545 2.0625 18.9764 2.38281 18.3045 2.69531C16.5155 3.52344 14.8436 5.19531 14.1014 6.89062L13.8827 7.39844L13.4061 7.23438C13.0155 7.10938 12.7264 7.07812 11.7967 7.07812C10.7498 7.07031 10.617 7.09375 10.0389 7.28906C8.5389 7.82031 7.36703 8.86719 6.71078 10.2734C6.37484 10.9766 6.25765 11.4766 6.19515 12.3516L6.14828 13.1094L5.63265 13.2344C4.43734 13.5234 3.10922 14.3984 2.39828 15.375C1.17953 17.0312 0.906092 19.3516 1.7264 21.2109C2.26547 22.4531 3.46078 23.6641 4.65609 24.1797C5.59359 24.5859 5.84359 24.6328 7.51547 24.6641L9.14047 24.7031V27.7812V30.8594H7.58578H6.03109L5.82797 30.4375C5.6014 29.9688 5.25765 29.6328 4.74203 29.3594C4.46859 29.2109 4.2889 29.1797 3.71078 29.1797C3.07015 29.1797 2.96859 29.2031 2.57797 29.4219C0.921717 30.3516 0.992029 32.6875 2.69515 33.5781C3.01547 33.7422 3.19515 33.7812 3.71078 33.7812C4.24203 33.7891 4.39828 33.7578 4.73422 33.5781C5.20297 33.3281 5.6639 32.8438 5.87484 32.375L6.02328 32.0312H8.0389C10.4608 32.0312 10.328 32.0938 10.3748 31.0156L10.4061 30.3125H12.8983H15.3905V31.8672V33.4297L14.9842 33.6172C13.4998 34.3047 13.1327 36.2188 14.2655 37.3828C14.7577 37.8906 15.2108 38.0859 15.9373 38.0859C16.4217 38.0859 16.6014 38.0469 16.9686 37.8672C18.0155 37.3516 18.5077 36.2031 18.1717 35.0391C18.0623 34.6797 17.9452 34.4922 17.5936 34.1406C17.3436 33.8984 17.0155 33.6484 16.8592 33.5938L16.5702 33.4844L16.5467 31.4766C16.5233 29.6328 16.5077 29.4531 16.3748 29.3047C16.2264 29.1406 16.1717 29.1406 13.3045 29.1406H10.3905V26.9141V24.6875H13.0311H15.6717L15.8045 25.5469C16.5389 30.4297 20.6639 33.9844 25.5858 33.9844C28.9842 33.9844 32.0233 32.3281 33.8983 29.4531C34.9139 27.8906 35.5155 25.7891 35.4608 23.9766L35.4373 23.2969L35.828 22.9844C37.6014 21.5703 38.617 19.5938 38.7264 17.3281C38.8827 14.2344 37.2967 11.4688 34.5623 10.0547C33.6092 9.57031 32.6873 9.3125 31.492 9.21094C30.953 9.16406 30.4998 9.11719 30.492 9.10938C30.4764 9.09375 30.3827 8.75 30.2811 8.33594C29.8123 6.49219 28.6952 4.8125 27.1639 3.64062C25.3827 2.28125 22.9373 1.64844 20.742 1.96094ZM23.2889 3.24219C25.7264 3.66406 27.7655 5.23438 28.8045 7.48438C29.0936 8.10938 29.453 9.39062 29.453 9.80469C29.453 9.94531 29.5155 10.1406 29.6014 10.2422C29.742 10.4141 29.7967 10.4219 30.9452 10.4375C32.617 10.4531 33.5623 10.7266 34.7733 11.5234C36.5467 12.7109 37.6639 14.75 37.6717 16.8359C37.6795 18.4844 36.8827 20.375 35.6717 21.5547C35.367 21.8516 35.2264 21.9453 35.203 21.8672C35.1795 21.8047 35.1248 21.6016 35.078 21.4062C34.6561 19.75 33.328 17.7344 31.8827 16.5469C28.4373 13.7188 23.8045 13.4688 20.1405 15.9062C17.7967 17.4609 16.1717 20.0469 15.7811 22.8281L15.6873 23.5156H11.0623C5.93734 23.5156 5.98422 23.5156 4.95297 23C4.2264 22.6406 3.68734 22.1562 3.21078 21.4375C2.64828 20.6016 2.46078 19.9531 2.46078 18.8672C2.46078 17.7812 2.64828 17.1328 3.21078 16.2969C3.99203 15.125 5.17172 14.4297 6.67172 14.25C7.36703 14.1719 7.42172 14.0781 7.37484 13.1484C7.2889 11.6719 7.67953 10.6016 8.67172 9.60156C9.56234 8.69531 10.5623 8.28125 11.8358 8.28125C12.5389 8.28125 13.0311 8.39062 13.7264 8.71094C14.1092 8.88281 14.2498 8.90625 14.4295 8.85156C14.6795 8.76562 14.7498 8.64844 15.0858 7.75781C15.8123 5.8125 17.5545 4.1875 19.6795 3.47656C20.7264 3.13281 22.1327 3.03906 23.2889 3.24219ZM26.5389 15.4766C28.8592 15.7344 31.0155 16.9375 32.4295 18.7734C34.6873 21.6953 34.8983 25.5938 32.9608 28.7422C32.4686 29.5391 31.3592 30.7109 30.5858 31.2422C29.7967 31.7891 28.7186 32.2891 27.7733 32.5469C27.0545 32.7422 26.8748 32.7578 25.5858 32.7578C24.3045 32.7578 24.1092 32.7422 23.3983 32.5469C22.4608 32.2969 21.0858 31.6406 20.3827 31.1016C19.3514 30.3125 18.3514 29.125 17.7811 27.9844C17.2577 26.9531 16.8748 25.3047 16.8748 24.1016C16.8748 20.8281 18.8123 17.7422 21.7577 16.3203C23.3436 15.5547 24.8514 15.2891 26.5389 15.4766ZM4.46078 30.5703C5.4139 31.2031 4.96859 32.6875 3.82797 32.6875C2.94515 32.6875 2.35922 31.6953 2.81234 30.9531C3.15609 30.3984 3.92953 30.2109 4.46078 30.5703ZM16.6561 34.8047C17.0155 35.0469 17.2342 35.5625 17.1483 35.9922C17.078 36.375 16.6092 36.8438 16.2264 36.9141C15.828 36.9922 15.2889 36.7812 15.0623 36.4688C14.8202 36.125 14.7889 35.5078 14.992 35.1719C15.3514 34.6016 16.1092 34.4297 16.6561 34.8047Z" fill="url(#paint0_linear_138_469)"/>
<path d="M20.8984 4.85156C19.2656 5.125 17.6875 6.28125 16.9688 7.73438C16.7891 8.10156 16.6406 8.46094 16.6406 8.53125C16.6406 8.59375 16.7109 8.74219 16.8047 8.85938C16.9297 9.01562 17.0312 9.0625 17.2578 9.0625C17.6016 9.0625 17.6953 8.97656 18.0156 8.32031C18.3438 7.64844 19.2656 6.73438 19.9453 6.41406C20.5156 6.14062 21.3281 5.9375 21.8594 5.9375C22.2734 5.9375 22.5 5.73438 22.5 5.35938C22.5 4.82031 22 4.66406 20.8984 4.85156Z" fill="url(#paint1_linear_138_469)"/>
<path d="M4.89019 18.9141C4.49956 19.2188 4.7105 19.9219 5.18706 19.9219C5.49175 19.9219 5.63237 19.8359 5.74175 19.5859C5.86675 19.2734 5.75737 18.9219 5.49175 18.8203C5.21831 18.7188 5.12456 18.7344 4.89019 18.9141Z" fill="url(#paint2_linear_138_469)"/>
<path d="M7.91388 18.8281C7.367 19.0469 7.56232 19.9219 8.15607 19.9219C8.69513 19.9219 8.96075 19.2422 8.54669 18.9141C8.32013 18.7344 8.18732 18.7188 7.91388 18.8281Z" fill="url(#paint3_linear_138_469)"/>
<path d="M10.7425 18.9453C10.3596 19.3203 10.6175 19.9219 11.1487 19.9219C11.4378 19.9219 11.719 19.625 11.719 19.3203C11.719 19.0703 11.3909 18.75 11.1331 18.75C11.0237 18.75 10.844 18.8359 10.7425 18.9453Z" fill="url(#paint4_linear_138_469)"/>
<path d="M25 17.1172C23.9532 17.2891 23 18.0312 22.5157 19.0469C22.2657 19.5781 22.2344 19.7109 22.2032 20.4766L22.1641 21.3281H21.8829C21.4688 21.3359 20.9688 21.5859 20.7813 21.8906C20.6329 22.1406 20.625 22.2734 20.625 25.7266C20.625 29.7266 20.6094 29.5938 21.1719 29.9453C21.4454 30.1172 21.4688 30.1172 25.586 30.1172C29.7032 30.1172 29.7266 30.1172 30 29.9453C30.1485 29.8516 30.3438 29.6562 30.4297 29.5156C30.5782 29.2656 30.586 29.1172 30.586 25.7422C30.586 22.3594 30.5782 22.2188 30.4297 21.9531C30.2344 21.625 29.6954 21.3281 29.2813 21.3281H28.9844V20.6328C28.9844 19.7891 28.8125 19.1875 28.3985 18.5625C27.9219 17.8359 27.1563 17.3359 26.2657 17.1406C25.6797 17.0234 25.6094 17.0234 25 17.1172ZM26.4844 18.4531C27.3438 18.8203 27.8125 19.6172 27.8125 20.7031V21.3281H25.5469H23.2813L23.3282 20.7188C23.3907 19.8828 23.5547 19.4141 23.9297 19C24.625 18.2578 25.5547 18.0547 26.4844 18.4531ZM29.375 25.7031V28.9062H25.586H21.7969V25.7031V22.5H25.586H29.375V25.7031Z" fill="url(#paint5_linear_138_469)"/>
<path d="M25.0936 23.3516C24.4374 23.5234 23.8905 24.1172 23.7577 24.8125C23.5936 25.6563 23.9843 26.4453 24.7499 26.8281C24.9843 26.9531 24.9999 26.9844 24.9999 27.375C24.9999 27.9219 25.1718 28.1562 25.5858 28.1562C25.9999 28.1562 26.1718 27.9219 26.1718 27.375C26.1718 26.9688 26.1796 26.9531 26.4686 26.8047C27.1874 26.4375 27.5858 25.5938 27.4218 24.8125C27.2108 23.7813 26.1171 23.0938 25.0936 23.3516ZM26.0936 24.6484C26.2108 24.7656 26.2655 24.9297 26.2655 25.1172C26.2655 25.6953 25.6405 26 25.1718 25.6484C24.8827 25.4297 24.8358 24.9063 25.0858 24.6406C25.3671 24.3438 25.8124 24.3438 26.0936 24.6484Z" fill="url(#paint6_linear_138_469)"/>
<defs>
<linearGradient id="paint0_linear_138_469" x1="2.49902" y1="4.79125e-07" x2="50.9261" y2="41.3277" gradientUnits="userSpaceOnUse">
<stop stop-color="#FF0000"/>
<stop offset="1" stop-color="#8F8E8E"/>
</linearGradient>
<linearGradient id="paint1_linear_138_469" x1="16.8348" y1="4.55273" x2="22.6002" y2="11.0487" gradientUnits="userSpaceOnUse">
<stop stop-color="#FF0000"/>
<stop offset="1" stop-color="#8F8E8E"/>
</linearGradient>
<linearGradient id="paint2_linear_138_469" x1="4.72321" y1="18.6972" x2="6.25437" y2="19.8971" gradientUnits="userSpaceOnUse">
<stop stop-color="#FF0000"/>
<stop offset="1" stop-color="#8F8E8E"/>
</linearGradient>
<linearGradient id="paint3_linear_138_469" x1="7.63016" y1="18.6989" x2="9.17458" y2="19.9664" gradientUnits="userSpaceOnUse">
<stop stop-color="#FF0000"/>
<stop offset="1" stop-color="#8F8E8E"/>
</linearGradient>
<linearGradient id="paint4_linear_138_469" x1="10.598" y1="18.6891" x2="12.1529" y2="19.9572" gradientUnits="userSpaceOnUse">
<stop stop-color="#FF0000"/>
<stop offset="1" stop-color="#8F8E8E"/>
</linearGradient>
<linearGradient id="paint5_linear_138_469" x1="20.9551" y1="16.3701" x2="36.9023" y2="26.3907" gradientUnits="userSpaceOnUse">
<stop stop-color="#FF0000"/>
<stop offset="1" stop-color="#8F8E8E"/>
</linearGradient>
<linearGradient id="paint6_linear_138_469" x1="23.8446" y1="23.0445" x2="29.7976" y2="26.8194" gradientUnits="userSpaceOnUse">
<stop stop-color="#FF0000"/>
<stop offset="1" stop-color="#8F8E8E"/>
</linearGradient>
</defs>
</svg>
